<?xml version="1.0" encoding="UTF-8"?>
<svg id="Icons_Gradient" data-name="Icons Gradient" xmlns="http://www.w3.org/2000/svg" viewBox="0 0 247.31 273">
  <defs>
    <style>
      .cls-1 {
        fill: #ff5c35;
        stroke-width: 0px;
      }
    </style>
  </defs>
  <path id="Product_Icon_one" data-name="Product Icon one" class="cls-1" d="M245.32,124.13c-1.88-5.77-4.94-10.78-8.8-14.96-.06-.06-.13-.13-.19-.19-.77-.83-1.56-1.63-2.42-2.36-.29-.29-.57-.51-.89-.77-.64-.57-1.31-1.12-1.98-1.59-.48-.38-.99-.7-1.47-1.05-.57-.38-1.12-.73-1.69-1.08-.29-.19-.54-.38-.86-.54L60.44,5.39c-1.47-.86-2.97-1.56-4.47-2.2h-.06c-1.18-.51-2.39-.96-3.57-1.34-.13-.03-.26-.06-.38-.1-1.12-.35-2.26-.64-3.38-.86-.32-.06-.61-.13-.92-.16-.99-.19-1.95-.35-2.93-.48-.48-.03-.96-.06-1.44-.1-.83-.06-1.66-.13-2.46-.13-.19,0-.35-.03-.51-.03-.48,0-.93.06-1.37.1-.67,0-1.34.03-2.01.1-.77.06-1.47.16-2.2.26-.54.06-1.12.16-1.66.26-.73.13-1.47.29-2.2.48-.57.13-1.15.29-1.72.45l-1.82.57c-.7.25-1.4.51-2.11.8-.41.16-.8.32-1.18.48-.93.41-1.85.86-2.74,1.34-.13.06-.22.13-.35.19-6.19,3.35-11.58,8.36-15.4,14.8-.06.1-.13.22-.19.32-1.56,2.74-2.77,5.61-3.67,8.52-.32,1.18-.64,2.36-.86,3.54,0,.06-.03.16-.03.26-.26,1.15-.41,2.33-.54,3.51-.06.42-.06.8-.1,1.18-.03.54-.06,1.08-.1,1.63-.03.35-.03.7-.03,1.05,0,.16-.03.35-.03.51v192.38c0,.16.03.35.03.51,0,.35,0,.7.03,1.05.03.54.06,1.08.1,1.63.03.38.03.77.1,1.18.13,1.18.29,2.36.54,3.51,0,.1.03.19.03.26.22,1.18.54,2.36.86,3.54.89,2.9,2.11,5.77,3.67,8.52.06.1.13.22.19.32,3.83,6.44,9.22,11.45,15.4,14.8.13.06.22.13.35.19.89.48,1.82.93,2.74,1.34.38.16.77.32,1.18.48.7.29,1.4.54,2.11.8.61.19,1.21.41,1.82.57.57.16,1.15.32,1.72.45.73.19,1.44.35,2.17.48.57.1,1.15.19,1.69.26.73.1,1.47.19,2.2.26.67.06,1.34.1,2.01.13.45,0,.89.06,1.37.06.16,0,.32-.03.51-.03.8,0,1.63-.06,2.46-.13.48-.03.96-.06,1.44-.1.99-.13,1.95-.29,2.93-.45.32-.06.61-.1.92-.16,1.12-.26,2.26-.54,3.38-.89.13-.03.26-.06.38-.1,1.18-.38,2.39-.83,3.57-1.31t.06-.03c1.5-.64,3-1.34,4.47-2.2l163.39-94.34c18.34-8.45,27.91-29.47,21.5-49.15ZM80.62,162.87v-52.75l45.67,26.38-45.67,26.38Z"/>
</svg>