<svg width="172" height="119" viewBox="0 0 172 119" fill="none" xmlns="http://www.w3.org/2000/svg">
<path d="M88.4499 54.1002C81.7539 55.3852 75.2849 50.9982 74.0009 44.3032C72.7169 37.6082 77.1029 31.1382 83.7979 29.8542L79.1819 5.79419C59.1989 9.62819 46.1069 28.9362 49.9409 48.9202C53.7749 68.9032 73.0829 81.9952 93.0669 78.1612L88.4509 54.1012L88.4499 54.1002Z" fill="url(#paint0_linear_181_2970)"/>
<path d="M122.305 35.0345C118.47 15.0505 99.1624 1.95946 79.1794 5.79346L83.7954 29.8535C90.4914 28.5685 96.9604 32.9555 98.2444 39.6505C99.5294 46.3455 95.1424 52.8155 88.4474 54.0995L93.0634 78.1595C113.046 74.3255 126.138 55.0175 122.304 35.0335L122.305 35.0345Z" fill="url(#paint1_linear_181_2970)"/>
<path d="M81.4889 30.0686C88.2516 30.0686 93.7339 24.5863 93.7339 17.8236C93.7339 11.0609 88.2516 5.57861 81.4889 5.57861C74.7262 5.57861 69.2439 11.0609 69.2439 17.8236C69.2439 24.5863 74.7262 30.0686 81.4889 30.0686Z" fill="#FF5C35"/>
<path d="M102.996 66.6823C103.3 59.9264 98.0687 54.2038 91.3127 53.9006C84.5568 53.5974 78.8342 58.8283 78.531 65.5842C78.2278 72.3401 83.4587 78.0627 90.2146 78.366C96.9705 78.6692 102.693 73.4383 102.996 66.6823Z" fill="#FF5C35"/>
<path fill-rule="evenodd" clip-rule="evenodd" d="M141.795 97V98.2055H143.079V102.103H144.364V98.2055H145.703V97H141.795ZM146.407 97V102.103H147.733L147.714 99.3273L148.713 101.037H149.625L150.68 99.1991L150.661 102.103H152V97H150.73L149.182 99.6265L147.623 97H146.407ZM25.8929 114.079C25.0274 114.079 24.2335 113.969 23.5104 113.75C22.7873 113.53 22.1349 113.201 21.5532 112.76C20.9716 112.321 20.4542 111.789 20 111.165L21.8082 109.123C22.5025 110.088 23.1837 110.755 23.8501 111.123C24.5164 111.492 25.2684 111.676 26.105 111.676C26.5871 111.676 27.0264 111.602 27.4238 111.453C27.8202 111.304 28.1329 111.098 28.36 110.836C28.5871 110.573 28.7006 110.272 28.7006 109.932C28.7006 109.691 28.6541 109.468 28.5619 109.262C28.4698 109.056 28.3311 108.872 28.1469 108.709C27.9626 108.546 27.7355 108.394 27.4666 108.252C27.1967 108.111 26.8924 107.99 26.5518 107.89C26.2111 107.792 25.8352 107.699 25.4247 107.614C24.6449 107.458 23.9636 107.249 23.3829 106.987C22.8012 106.724 22.3117 106.398 21.9153 106.009C21.5179 105.619 21.2275 105.178 21.0433 104.69C20.859 104.2 20.7669 103.644 20.7669 103.02C20.7669 102.397 20.9055 101.822 21.1819 101.298C21.4583 100.773 21.838 100.319 22.3201 99.936C22.8022 99.5535 23.3624 99.2557 24.0008 99.0426C24.6393 98.8295 25.327 98.7234 26.0641 98.7234C26.9007 98.7234 27.649 98.823 28.3079 99.0212C28.9677 99.2204 29.5484 99.5144 30.0519 99.9044C30.5554 100.294 30.9695 100.766 31.2962 101.319L29.4665 103.127C29.1827 102.688 28.8635 102.322 28.5089 102.032C28.1543 101.741 27.7709 101.521 27.3605 101.372C26.9491 101.223 26.5164 101.149 26.0632 101.149C25.5522 101.149 25.1092 101.219 24.7333 101.362C24.3573 101.503 24.0632 101.706 23.8501 101.968C23.637 102.23 23.5309 102.546 23.5309 102.914C23.5309 103.198 23.5951 103.449 23.7226 103.669C23.8501 103.888 24.0306 104.084 24.2652 104.254C24.4987 104.425 24.8003 104.573 25.1688 104.701C25.5373 104.828 25.9561 104.942 26.4243 105.042C27.2041 105.198 27.9058 105.406 28.5303 105.669C29.1538 105.931 29.6862 106.243 30.1254 106.605C30.5647 106.967 30.8979 107.378 31.1249 107.839C31.352 108.3 31.4656 108.814 31.4656 109.381C31.4656 110.359 31.2348 111.2 30.7741 111.902C30.3134 112.604 29.6638 113.143 28.8281 113.519C27.9915 113.895 27.0124 114.083 25.8929 114.083V114.079ZM33.9984 113.866V102.655H36.5725L36.6031 104.266C36.6537 104.192 36.7074 104.119 36.7642 104.048C37.0192 103.729 37.3245 103.453 37.6791 103.219C38.0336 102.985 38.4096 102.801 38.8061 102.666C39.2025 102.531 39.6074 102.464 40.0187 102.464C40.6283 102.464 41.1709 102.56 41.6464 102.752C42.121 102.944 42.5184 103.245 42.8376 103.656C43.0582 103.94 43.2396 104.278 43.3823 104.67C43.5325 104.382 43.7305 104.119 43.9768 103.879C44.2606 103.602 44.5798 103.354 44.9344 103.134C45.289 102.915 45.6612 102.748 46.0512 102.635C46.4411 102.521 46.8273 102.464 47.2108 102.464C48.0614 102.464 48.7705 102.635 49.3382 102.975C49.905 103.316 50.3303 103.833 50.6141 104.528C50.898 105.224 51.0394 106.082 51.0394 107.103V113.868H48.402V107.273C48.402 106.706 48.3275 106.238 48.1786 105.869C48.0297 105.5 47.8026 105.227 47.4983 105.05C47.1931 104.873 46.8143 104.783 46.3601 104.783C46.0056 104.783 45.6687 104.844 45.3495 104.964C45.0302 105.085 44.7576 105.254 44.5305 105.475C44.3034 105.695 44.1266 105.947 43.9991 106.23C43.8716 106.514 43.8074 106.825 43.8074 107.166V113.867H41.1699V107.251C41.1699 106.712 41.0917 106.261 40.9363 105.9C40.78 105.538 40.5538 105.262 40.256 105.071C39.9582 104.879 39.5962 104.783 39.1709 104.783C38.8163 104.783 38.4831 104.844 38.1714 104.964C37.8596 105.085 37.5897 105.251 37.3626 105.464C37.1356 105.677 36.9587 105.924 36.8312 106.208C36.7037 106.492 36.6395 106.804 36.6395 107.145V113.867H34.0021L33.9984 113.866ZM55.6728 113.313C56.4238 113.824 57.2605 114.079 58.1827 114.079L58.1846 114.08C58.7234 114.08 59.2297 113.996 59.7053 113.825C60.1799 113.655 60.6126 113.432 61.0026 113.155C61.3556 112.903 61.6573 112.618 61.9062 112.297V113.867H64.5651V102.656H61.9277V104.23C61.7104 103.908 61.4482 103.617 61.1403 103.358C60.7858 103.06 60.3744 102.83 59.9063 102.667C59.4382 102.504 58.9198 102.422 58.353 102.422C57.3749 102.422 56.4955 102.67 55.7156 103.166C54.9348 103.663 54.3187 104.35 53.8645 105.23C53.4113 106.109 53.1842 107.109 53.1842 108.229C53.1842 109.35 53.4104 110.349 53.8645 111.229C54.3187 112.108 54.9208 112.802 55.6728 113.313ZM60.5224 111.313C60.0543 111.611 59.5154 111.76 58.9058 111.76C58.2953 111.76 57.7602 111.611 57.2995 111.313C56.8389 111.016 56.4806 110.601 56.2256 110.069C55.9706 109.538 55.8431 108.91 55.8431 108.229C55.8431 107.548 55.9706 106.946 56.2256 106.421C56.4806 105.896 56.8389 105.485 57.2995 105.187C57.7602 104.889 58.2963 104.74 58.9058 104.74C59.5154 104.74 60.0543 104.889 60.5224 105.187C60.9905 105.485 61.3553 105.896 61.6178 106.421C61.8802 106.946 62.0114 107.534 62.0114 108.229C62.0114 108.924 61.8802 109.538 61.6178 110.069C61.3553 110.601 60.9905 111.016 60.5224 111.313ZM67.6056 113.867V102.656H70.1798L70.2027 104.57C70.3329 104.331 70.4884 104.104 70.6693 103.89C71.0518 103.435 71.4957 103.078 71.9992 102.816C72.5027 102.553 73.0313 102.422 73.5841 102.422C73.8251 102.422 74.055 102.443 74.2756 102.486C74.4952 102.529 74.6757 102.578 74.8181 102.635L74.1164 105.507C73.9601 105.422 73.7684 105.352 73.5422 105.294C73.3151 105.237 73.0881 105.208 72.8619 105.208C72.5073 105.208 72.1704 105.276 71.8512 105.41C71.532 105.545 71.2519 105.733 71.0109 105.974C70.7698 106.215 70.5818 106.495 70.4469 106.815C70.3119 107.134 70.2449 107.492 70.2449 107.889V113.866H67.6075L67.6056 113.867ZM75.9893 102.656V105.082H78.2015V113.867H80.8175V105.082H83.2642V102.656H80.8175V99.8059H78.2015V102.656H75.9893ZM98.302 114.078C97.2243 114.078 96.2388 113.894 95.3454 113.525C94.4519 113.157 93.6786 112.628 93.0271 111.941C92.3747 111.253 91.8675 110.438 91.5064 109.494C91.1444 108.551 90.9639 107.519 90.9639 106.399C90.9639 105.278 91.1556 104.321 91.5381 103.399C91.9206 102.478 92.4529 101.669 93.1332 100.974C93.8135 100.28 94.6083 99.7397 95.5157 99.3572C96.423 98.9747 97.4086 98.783 98.4723 98.783C99.1954 98.783 99.8972 98.8891 100.578 99.1022C101.259 99.3154 101.883 99.6094 102.45 99.9854C103.017 100.361 103.492 100.798 103.875 101.294L102.109 103.23C101.741 102.847 101.361 102.524 100.971 102.262C100.581 101.999 100.176 101.801 99.7585 101.666C99.3397 101.531 98.9107 101.464 98.4714 101.464C97.819 101.464 97.2057 101.585 96.6315 101.826C96.0573 102.067 95.5603 102.408 95.1425 102.847C94.7237 103.286 94.3942 103.809 94.1532 104.411C93.9122 105.014 93.7912 105.684 93.7912 106.421C93.7912 107.158 93.9084 107.853 94.142 108.463C94.3756 109.072 94.7088 109.597 95.1415 110.037C95.5743 110.477 96.0917 110.814 96.6948 111.048C97.2979 111.282 97.9605 111.399 98.6836 111.399C99.1517 111.399 99.6049 111.335 100.045 111.207C100.484 111.08 100.892 110.899 101.268 110.665C101.644 110.431 101.987 110.157 102.3 109.846L103.662 112.036C103.321 112.419 102.867 112.767 102.3 113.079C101.732 113.391 101.099 113.635 100.396 113.813C99.6934 113.991 98.9954 114.079 98.3011 114.079L98.302 114.078ZM106.532 98.9764V113.867H106.533H109.235V108.4H112.089L115.168 113.867L118.444 113.888L115.029 107.99C115.175 107.925 115.317 107.853 115.457 107.773C116.186 107.354 116.768 106.787 117.201 106.071C117.633 105.354 117.85 104.613 117.85 103.72C117.85 102.826 117.634 102.022 117.201 101.306C116.768 100.589 116.183 100.022 115.446 99.6036C114.708 99.1858 113.892 98.9764 112.999 98.9764H106.532ZM113.02 105.996H109.234V101.465H112.531C113.027 101.465 113.467 101.565 113.85 101.763C114.232 101.962 114.53 102.231 114.743 102.571C114.956 102.912 115.062 103.316 115.062 103.784C115.062 104.196 114.978 104.571 114.807 104.912C114.637 105.252 114.399 105.518 114.094 105.71C113.789 105.9 113.432 105.996 113.02 105.996ZM121.36 113.867V98.9764H123.976L128.634 106.556L133.357 98.9764H135.845V113.867H133.101V108.273C133.101 106.997 133.133 105.847 133.197 104.826C133.223 104.409 133.257 103.992 133.298 103.577L129.251 109.825H127.847L123.918 103.613C123.954 103.975 123.983 104.341 124.007 104.709C124.071 105.709 124.103 106.897 124.103 108.273V113.867H121.36Z" fill="#213343"/>
<defs>
<linearGradient id="paint0_linear_181_2970" x1="78.1169" y1="96.1272" x2="59.0329" y2="-0.684814" gradientUnits="userSpaceOnUse">
<stop offset="0.05" stop-color="#FF5C35"/>
<stop offset="0.53" stop-color="#FD804E"/>
<stop offset="0.74" stop-color="#FDA566"/>
</linearGradient>
<linearGradient id="paint1_linear_181_2970" x1="72.4664" y1="-3.79654" x2="124.647" y2="82.3865" gradientUnits="userSpaceOnUse">
<stop offset="0.05" stop-color="#FF5C35"/>
<stop offset="0.53" stop-color="#FD804E"/>
<stop offset="0.74" stop-color="#FDA566"/>
</linearGradient>
</defs>
</svg>
